<?xml version="1.0" encoding="utf-8"?>
<svg viewBox="0 0 129 29" fill="none" xmlns="http://www.w3.org/2000/svg" xmlns:bx="https://boxy-svg.com">
  <defs>
    <style bx:fonts="Artifika">@import url(https://fonts.googleapis.com/css2?family=Artifika%3Aital%2Cwght%400%2C400&amp;display=swap);</style>
  </defs>
  <g id="SVGRepo_iconCarrier" transform="matrix(0.0533360056579113, 0, 0, 0.0533360056579113, 5.173215866088868, 1.0839600563049325)" style="">
    <g>
      <path d="M 454.68 385.71 L 454.68 355.164 C 454.68 342.683 447.298 331.395 435.873 326.408 C 398.723 310.196 365.197 283.274 341.472 250.601 C 316.094 215.653 302.68 175.77 302.68 135.264 C 302.68 124.856 303.479 114.328 305.054 103.974 C 306.834 92.266 302.037 80.686 292.535 73.752 L 202.721 8.211 C 197.649 4.51 191.442 3.004 185.24 3.976 C 179.038 4.945 173.585 8.271 169.885 13.342 L 49.574 178.224 C 47.006 177.185 44.203 176.839 41.397 177.277 C 37.306 177.917 33.709 180.11 31.269 183.455 L 2.973 222.233 C -2.064 229.137 -0.546 238.852 6.358 243.89 L 279.04 442.87 C 296.874 455.885 317.971 462.764 340.05 462.764 L 447.18 462.764 C 455.727 462.764 462.68 455.811 462.68 447.264 L 462.68 399.264 C 462.68 393.438 459.445 388.357 454.68 385.71 L 454.68 385.71 Z M 182.001 22.183 C 183.34 20.349 185.312 19.145 187.555 18.795 C 189.795 18.44 192.042 18.987 193.878 20.327 L 283.693 85.869 C 288.658 89.491 291.16 95.564 290.223 101.718 C 288.535 112.817 287.679 124.103 287.679 135.264 C 287.679 143.873 288.247 152.452 289.354 160.966 L 265.807 168.815 C 261.877 170.126 259.754 174.373 261.064 178.302 C 262.112 181.445 265.039 183.432 268.178 183.432 C 268.964 183.432 269.764 183.307 270.551 183.045 L 291.868 175.939 C 293.079 181.779 294.559 187.576 296.285 193.321 L 273.807 200.814 C 269.877 202.125 267.754 206.372 269.064 210.301 C 270.112 213.444 273.039 215.431 276.178 215.431 C 276.964 215.431 277.764 215.306 278.551 215.044 L 301.106 207.525 C 303.222 213.088 305.59 218.588 308.191 224.018 L 285.057 231.729 C 281.128 233.039 279.004 237.287 280.314 241.216 C 281.362 244.359 284.288 246.346 287.428 246.346 C 288.214 246.346 289.014 246.221 289.801 245.959 L 315.217 237.487 C 318.214 242.78 321.452 247.989 324.919 253.107 L 299.307 261.645 C 295.377 262.955 293.254 267.203 294.564 271.132 C 295.612 274.275 298.538 276.262 301.678 276.262 C 302.464 276.262 303.264 276.137 304.051 275.875 L 331.551 266.708 C 332.419 266.419 333.193 265.979 333.867 265.438 C 358.79 297.519 392.62 323.894 429.871 340.151 C 435.829 342.752 439.679 348.642 439.679 355.159 L 439.679 383.76 L 340.047 383.76 C 334.82 383.76 329.826 382.132 325.605 379.051 L 61.976 186.675 L 182.001 22.183 L 182.001 22.183 Z M 447.68 447.264 C 447.68 447.539 447.455 447.764 447.18 447.764 L 340.049 447.764 C 321.17 447.764 303.131 441.882 287.881 430.753 L 15.199 231.773 C 14.976 231.611 14.928 231.297 15.09 231.075 L 43.386 192.297 C 43.416 192.256 43.508 192.129 43.713 192.098 C 43.742 192.093 43.771 192.091 43.797 192.091 C 43.951 192.091 44.048 192.161 44.084 192.188 L 316.764 391.173 C 323.571 396.14 331.622 398.765 340.048 398.765 L 447.18 398.765 C 447.455 398.765 447.68 398.99 447.68 399.265 L 447.68 447.264 L 447.68 447.264 Z" style="stroke-width: 587.437px; stroke-miterlimit: 1; stroke-dashoffset: 1px; paint-order: fill; fill-rule: nonzero; fill: rgb(255, 140, 0);"/>
    </g>
  </g>
  <text style="fill: rgb(255, 140, 0); font-family: Artifika; font-size: 23.4px; font-weight: 700; white-space: pre;" x="40.569" y="22.962" transform="matrix(1, 0, 0, 1, 0, 8.881784197001252e-16)">KUTSU</text>
</svg>